<?xml version="1.0" encoding="utf-8"?>
<!-- Generator: Adobe Illustrator 24.0.1, SVG Export Plug-In . SVG Version: 6.00 Build 0)  -->
<svg version="1.1" xmlns="http://www.w3.org/2000/svg" xmlns:xlink="http://www.w3.org/1999/xlink" x="0px" y="0px"
	 viewBox="0 0 380 300" style="enable-background:new 0 0 380 300;" xml:space="preserve">
<style type="text/css">
	.st0{fill:#FFFFFF;stroke:#FFFFFF;stroke-miterlimit:10;}
	.st1{fill:none;stroke:#FFFFFF;stroke-width:0.5;stroke-miterlimit:10;}
	.st2{fill:none;}
	.st3{fill:#FFFFFF;}
	.st4{font-family:'AdobeSongStd-Light-GBpc-EUC-H';}
	.st5{font-size:12px;}
	.st6{fill:none;stroke:#FF0000;stroke-miterlimit:10;stroke-dasharray:11.9011,11.9011;}
	.st7{fill:none;stroke:#FF0000;stroke-width:2;stroke-miterlimit:10;}
	.st8{fill:none;stroke:#FFFFFF;stroke-miterlimit:10;stroke-dasharray:12;}
	.st9{fill:none;stroke:#FFFFFF;stroke-width:0.75;stroke-miterlimit:10;}
	.st10{fill:none;stroke:#FFFFFF;stroke-miterlimit:10;}
	.st11{display:none;}
	.st12{display:inline;}
	.st13{fill:none;stroke:#FF0000;stroke-width:2;stroke-miterlimit:10;stroke-dasharray:11.9965,11.9965;}
	.st14{display:inline;fill:#FFFFFF;stroke:#FFFFFF;stroke-miterlimit:10;}
	.st15{display:inline;fill:none;stroke:#FFFFFF;stroke-width:0.5;stroke-miterlimit:10;}
	.st16{display:inline;fill:none;stroke:#FFFFFF;stroke-miterlimit:10;}
	.st17{display:inline;fill:none;}
	.st18{display:inline;fill:#FFFFFF;}
	.st19{display:inline;fill:none;stroke:#FF0000;stroke-width:2;stroke-miterlimit:10;}
</style>
<g id="图层_1">
	<path class="st0" d="M73.5,44.8l-1.9,9.4c0,0.1,0.1,0.2,0.2,0.2l3.9,0c0.1,0,0.2-0.1,0.2-0.2l-1.9-9.4
		C73.8,44.6,73.6,44.6,73.5,44.8z"/>
	<path class="st0" d="M73.6,255.2l-1.9-9.3c0-0.1,0.1-0.2,0.2-0.2h3.8c0.1,0,0.2,0.1,0.2,0.2l-1.9,9.3
		C73.9,255.4,73.7,255.4,73.6,255.2z"/>
	<line class="st1" x1="73.8" y1="52.7" x2="73.8" y2="250.6"/>
	<line class="st1" x1="190" y1="43.9" x2="66.1" y2="43.9"/>
	<line class="st1" x1="190" y1="256.1" x2="66.1" y2="256.1"/>
	<rect x="49.2" y="142.1" class="st2" width="26.7" height="19.2"/>
	<text transform="matrix(1 0 0 1 49.2128 152.618)" class="st3 st4 st5">大圆</text>
	<g>
		<circle class="st6" cx="190" cy="150" r="106.1"/>
	</g>
	<polygon class="st7" points="230.4,52.5 149.6,52.5 92.5,109.6 92.5,190.4 149.6,247.5 230.4,247.5 287.5,190.4 287.5,109.6 	"/>
	<circle class="st8" cx="190" cy="150" r="97.5"/>
	<line class="st1" x1="280.5" y1="152.2" x2="99.5" y2="152.2"/>
	<path class="st0" d="M93.3,152.3l9.4,1.9c0.1,0,0.2-0.1,0.2-0.2l0-3.9c0-0.1-0.1-0.2-0.2-0.2l-9.4,1.9
		C93.2,152,93.2,152.3,93.3,152.3z"/>
	<path class="st0" d="M286.7,151.5l-9.4-1.9c-0.1,0-0.2,0.1-0.2,0.2v3.9c0,0.1,0.1,0.2,0.2,0.2l9.4-1.9
		C286.8,151.8,286.8,151.5,286.7,151.5z"/>
	<rect x="174.4" y="138.9" class="st2" width="26.7" height="19.2"/>
	<text transform="matrix(1 0 0 1 174.3941 149.4512)" class="st3 st4 st5">小圆</text>
	<line class="st9" x1="230.4" y1="52.5" x2="230.4" y2="83.7"/>
	<line class="st9" x1="149.6" y1="52.5" x2="150.1" y2="85.2"/>
	<path class="st0" d="M150.4,83.8l9.4,1.9c0.1,0,0.2-0.1,0.2-0.2v-3.9c0-0.1-0.1-0.2-0.2-0.2l-9.4,1.9
		C150.2,83.5,150.2,83.8,150.4,83.8z"/>
	<path class="st0" d="M229.6,83.5l-9.4-1.9c-0.1,0-0.2,0.1-0.2,0.2v3.9c0,0.1,0.1,0.2,0.2,0.2l9.4-1.9
		C229.8,83.8,229.8,83.5,229.6,83.5z"/>
	<line class="st10" x1="156.6" y1="83.7" x2="223.5" y2="83.7"/>
	<rect x="176.7" y="85.2" class="st2" width="26.7" height="19.2"/>
	<text transform="matrix(1 0 0 1 176.6736 95.7773)" class="st3 st4 st5">线长</text>
</g>
<g id="图层_3" class="st11">
	<g class="st12">
		<circle class="st13" cx="190" cy="150" r="103.1"/>
	</g>
	<path class="st14" d="M75,49.6l-1.7,8.1c0,0.1,0.1,0.2,0.2,0.2l3.3,0c0.1,0,0.2-0.1,0.2-0.2l-1.7-8.1C75.4,49.4,75.1,49.4,75,49.6z
		"/>
	<path class="st14" d="M75.1,252.3l-1.6-8c0-0.1,0.1-0.2,0.2-0.2h3.3c0.1,0,0.2,0.1,0.2,0.2l-1.6,8
		C75.4,252.4,75.2,252.4,75.1,252.3z"/>
	<line class="st15" x1="75.2" y1="47.6" x2="75.2" y2="248.2"/>
	<line class="st15" x1="190" y1="46.9" x2="69.1" y2="46.9"/>
	<line class="st15" x1="190" y1="253.1" x2="69.1" y2="253.1"/>
	<path class="st14" d="M140.8,235l5.3-8c0.1-0.1,0.2-0.1,0.3,0l2.7,2.7c0.1,0.1,0.1,0.2,0,0.3l-8,5.3
		C140.9,235.4,140.7,235.2,140.8,235z"/>
	<line class="st16" x1="142.3" y1="233.5" x2="152.6" y2="224.1"/>
	<rect x="150.2" y="213" class="st17" width="16.4" height="11.8"/>
	<text transform="matrix(1 0 0 1 154.6413 223.5544)" class="st18 st4 st5">R</text>
	<path class="st19" d="M224.7,58.2h-69.3c-11.4,0-21.9,6.1-27.6,15.9l-34.6,60c-5.7,9.9-5.7,22,0,31.8l34.6,60
		c5.7,9.8,16.2,15.9,27.6,15.9h69.3c11.4,0,21.9-6.1,27.6-15.9l34.6-60c5.7-9.9,5.7-22,0-31.8l-34.6-60
		C246.5,64.2,236,58.2,224.7,58.2z"/>
	<rect x="48.6" y="142.5" class="st17" width="26.7" height="19.2"/>
	<text transform="matrix(1 0 0 1 48.6371 153.1004)" class="st18 st4 st5">直径</text>
</g>
<g id="图层_2" class="st11">
	<path class="st14" d="M227,59l-1.9,9.4c0,0.1,0.1,0.2,0.2,0.2l3.9,0c0.1,0,0.2-0.1,0.2-0.2l-1.9-9.4C227.3,58.8,227,58.8,227,59z"
		/>
	<path class="st14" d="M227,241l-1.9-9.3c0-0.1,0.1-0.2,0.2-0.2h3.8c0.1,0,0.2,0.1,0.2,0.2l-1.9,9.3C227.3,241.2,227,241.2,227,241z
		"/>
	<line class="st15" x1="227.1" y1="63.8" x2="227.1" y2="234.8"/>
	<rect x="202.5" y="172.8" class="st17" width="26.7" height="19.2"/>
	<text transform="matrix(1 0 0 1 202.543 183.4078)" class="st18 st4 st5">高度</text>
	<path class="st14" d="M89,150.2l9.3,1.9c0.1,0,0.2-0.1,0.2-0.2l0-3.8c0-0.1-0.1-0.2-0.2-0.2l-9.3,1.9
		C88.8,149.9,88.8,150.1,89,150.2z"/>
	<path class="st14" d="M291.8,150.2l-9.3,1.9c-0.1,0-0.2-0.1-0.2-0.2v-3.8c0-0.1,0.1-0.2,0.2-0.2l9.3,1.9
		C292,149.9,292,150.1,291.8,150.2z"/>
	<line class="st15" x1="290.4" y1="150" x2="90.6" y2="150"/>
	<rect x="166.8" y="135.2" class="st17" width="26.7" height="19.2"/>
	<text transform="matrix(1 0 0 1 166.8287 145.7911)" class="st18 st4 st5">宽度</text>
</g>
</svg>
