<?xml version="1.0" encoding="utf-8"?>
<!-- Generator: Adobe Illustrator 24.0.1, SVG Export Plug-In . SVG Version: 6.00 Build 0)  -->
<svg version="1.1" xmlns="http://www.w3.org/2000/svg" xmlns:xlink="http://www.w3.org/1999/xlink" x="0px" y="0px"
	 viewBox="0 0 380 300" style="enable-background:new 0 0 380 300;" xml:space="preserve">
<style type="text/css">
	.st0{display:none;}
	.st1{display:inline;fill:none;stroke:#FF0000;stroke-width:2;stroke-linecap:round;stroke-miterlimit:10;}
	.st2{display:inline;}
	.st3{fill:none;stroke:#FF0000;stroke-width:2;stroke-miterlimit:10;stroke-dasharray:11.9011,11.9011;}
	.st4{display:inline;fill:#FFFFFF;stroke:#FFFFFF;stroke-miterlimit:10;}
	.st5{display:inline;fill:none;stroke:#FFFFFF;stroke-width:0.5;stroke-miterlimit:10;}
	.st6{display:inline;fill:none;}
	.st7{display:inline;fill:#FFFFFF;}
	.st8{font-family:'AdobeSongStd-Light-GBpc-EUC-H';}
	.st9{font-size:12px;}
	.st10{fill:none;stroke:#FF0000;stroke-width:2;stroke-miterlimit:10;stroke-dasharray:12.1087,12.1087;}
	.st11{fill:#FFFFFF;stroke:#FFFFFF;stroke-miterlimit:10;}
	.st12{fill:none;stroke:#FFFFFF;stroke-width:0.5;stroke-miterlimit:10;}
	.st13{fill:none;}
	.st14{fill:#FFFFFF;}
	.st15{font-size:10.4652px;}
	.st16{display:inline;fill:none;stroke:#FFFFFF;stroke-miterlimit:10;}
	.st17{fill:none;stroke:#FF0000;stroke-width:2;stroke-linecap:round;stroke-miterlimit:10;}
	.st18{fill:none;stroke:#FF0000;stroke-width:2;stroke-miterlimit:10;stroke-dasharray:12;}
	.st19{font-size:9.9556px;}
	.st20{fill:none;stroke:#FFFFFF;stroke-miterlimit:10;}
</style>
<g id="图层_4">
</g>
<g id="图层_1" class="st0">
	<rect x="116" y="76" class="st1" width="148" height="148"/>
	<g class="st2">
		<circle class="st3" cx="190" cy="150" r="106.1"/>
	</g>
	<path class="st4" d="M83.5,44.8l-1.9,9.4c0,0.1,0.1,0.2,0.2,0.2l3.9,0c0.1,0,0.2-0.1,0.2-0.2l-1.9-9.4
		C83.8,44.6,83.6,44.6,83.5,44.8z"/>
	<path class="st4" d="M83.6,255.2l-1.9-9.3c0-0.1,0.1-0.2,0.2-0.2h3.8c0.1,0,0.2,0.1,0.2,0.2l-1.9,9.3
		C83.9,255.4,83.7,255.4,83.6,255.2z"/>
	<line class="st5" x1="83.8" y1="52.7" x2="83.8" y2="250.6"/>
	<line class="st5" x1="190" y1="43.9" x2="76.7" y2="43.9"/>
	<line class="st5" x1="190" y1="256.1" x2="76.7" y2="256.1"/>
	<rect x="59.2" y="142.1" class="st6" width="26.7" height="19.2"/>
	<text transform="matrix(1 0 0 1 59.2128 152.618)" class="st7 st8 st9">直径</text>
</g>
<g id="图层_3" class="st0">
	<path class="st1" d="M234.3,224h-88.6c-16.4,0-29.7-13.3-29.7-29.7v-88.6c0-16.4,13.3-29.7,29.7-29.7h88.6
		c16.4,0,29.7,13.3,29.7,29.7v88.6C264,210.7,250.7,224,234.3,224z"/>
	<g class="st2">
		<circle class="st10" cx="190" cy="150" r="92.5"/>
	</g>
	<g class="st2">
		<path class="st11" d="M93,58.5l-1.7,8.1c0,0.1,0.1,0.2,0.2,0.2h3.3c0.1,0,0.2-0.1,0.2-0.2l-1.7-8.1C93.4,58.3,93.1,58.3,93,58.5z"
			/>
		<path class="st11" d="M93.1,241.8l-1.6-8c0-0.1,0.1-0.2,0.2-0.2h3.3c0.1,0,0.2,0.1,0.2,0.2l-1.6,8C93.4,242,93.2,242,93.1,241.8z"
			/>
		<line class="st12" x1="93.3" y1="65.4" x2="93.3" y2="237.9"/>
		<line class="st12" x1="185.9" y1="57.7" x2="87.1" y2="57.7"/>
		<line class="st12" x1="185.9" y1="242.7" x2="87.1" y2="242.7"/>
		<rect x="71.9" y="143.2" class="st13" width="23.3" height="16.7"/>
		<text transform="matrix(1 0 0 1 71.8693 152.4561)" class="st14 st8 st15">直径</text>
	</g>
	<path class="st4" d="M125,214.5l5.3-8c0.1-0.1,0.2-0.1,0.3,0l2.7,2.7c0.1,0.1,0.1,0.2,0,0.3l-8,5.3
		C125.1,214.8,124.9,214.7,125,214.5z"/>
	<line class="st16" x1="129.4" y1="210.3" x2="139.8" y2="200.9"/>
	<rect x="137.4" y="191.4" class="st6" width="16.4" height="11.8"/>
	<text transform="matrix(1 0 0 1 141.8576 201.981)" class="st7 st8 st9">R</text>
</g>
<g id="图层_2">
	<line class="st17" x1="116" y1="196.1" x2="116" y2="103.9"/>
	<line class="st17" x1="236.1" y1="224" x2="143.9" y2="224"/>
	<line class="st17" x1="264" y1="103.9" x2="264" y2="196.1"/>
	<path class="st17" d="M264,103.9"/>
	<line class="st17" x1="143.9" y1="76" x2="236.1" y2="76"/>
	<line class="st17" x1="143.9" y1="76" x2="116" y2="103.9"/>
	<line class="st17" x1="236.1" y1="76" x2="264" y2="103.9"/>
	<line class="st17" x1="264" y1="196.1" x2="236.1" y2="224"/>
	<line class="st17" x1="116" y1="196.1" x2="143.9" y2="224"/>
	<circle class="st18" cx="190" cy="150" r="87.5"/>
	<g>
		<path class="st11" d="M97.1,63.3L95.5,71c0,0.1,0.1,0.2,0.2,0.2l3.3,0c0.1,0,0.2-0.1,0.2-0.2l-1.7-7.7
			C97.4,63.1,97.2,63.1,97.1,63.3z"/>
		<path class="st11" d="M97.2,237.7l-1.6-7.6c0-0.1,0.1-0.2,0.2-0.2H99c0.1,0,0.2,0.1,0.2,0.2l-1.6,7.6
			C97.5,237.9,97.3,237.9,97.2,237.7z"/>
		<line class="st12" x1="97.3" y1="69.8" x2="97.3" y2="233.9"/>
		<line class="st12" x1="190" y1="62.5" x2="91.2" y2="62.5"/>
		<line class="st12" x1="190" y1="238.5" x2="91.2" y2="238.5"/>
		<rect x="75.9" y="143.9" class="st13" width="23.3" height="15.9"/>
		<text transform="matrix(1.0512 0 0 1 75.9409 152.668)" class="st14 st8 st19">直径</text>
	</g>
	<path class="st11" d="M129.7,207.5l5.3-8c0.1-0.1,0.2-0.1,0.3,0l2.7,2.7c0.1,0.1,0.1,0.2,0,0.3l-8,5.3
		C129.8,207.8,129.6,207.6,129.7,207.5z"/>
	<line class="st20" x1="134.2" y1="203.2" x2="144.5" y2="193.8"/>
	<rect x="142.1" y="184.4" class="st13" width="16.4" height="11.8"/>
	<text transform="matrix(1 0 0 1 146.1731 194.9376)" class="st14 st8 st9">C</text>
	<path class="st11" d="M227,76l-1.9,9.4c0,0.1,0.1,0.2,0.2,0.2l3.9,0c0.1,0,0.2-0.1,0.2-0.2l-1.9-9.4C227.3,75.8,227,75.8,227,76z"
		/>
	<path class="st11" d="M227,224l-1.9-9.3c0-0.1,0.1-0.2,0.2-0.2h3.8c0.1,0,0.2,0.1,0.2,0.2l-1.9,9.3C227.3,224.2,227,224.2,227,224z
		"/>
	<line class="st12" x1="227.1" y1="85.6" x2="227.1" y2="221.3"/>
	<rect x="202.5" y="145.8" class="st13" width="26.7" height="19.2"/>
	<text transform="matrix(1 0 0 1 202.543 156.4023)" class="st14 st8 st9">高度</text>
	<g>
		<path class="st11" d="M116,120.2l9.3,1.9c0.1,0,0.2-0.1,0.2-0.2l0-3.8c0-0.1-0.1-0.2-0.2-0.2l-9.3,1.9
			C115.8,119.9,115.8,120.2,116,120.2z"/>
		<g>
			<path class="st11" d="M264,120.2l-9.3,1.9c-0.1,0-0.2-0.1-0.2-0.2v-3.8c0-0.1,0.1-0.2,0.2-0.2l9.3,1.9
				C264.2,119.9,264.2,120.2,264,120.2z"/>
			<line class="st12" x1="254.5" y1="120" x2="120.6" y2="120"/>
		</g>
	</g>
	<rect x="169.6" y="103" class="st13" width="26.7" height="19.2"/>
	<text transform="matrix(1 0 0 1 169.5679 113.557)" class="st14 st8 st9">宽度</text>
</g>
</svg>
