<svg xmlns="http://www.w3.org/2000/svg" viewBox="0 0 500.53 500.52"><defs><style>.cls-1{fill:none;}.cls-1,.cls-2{stroke:#000;}.cls-1,.cls-2,.cls-3{stroke-miterlimit:10;}.cls-2{fill:#ff0;}.cls-3,.cls-6{fill:red;}.cls-3{stroke:red;}.cls-4,.cls-7{font-size:18px;}.cls-4,.cls-5{font-family:AdobeSongStd-Light-GBpc-EUC-H, Adobe Song Std;}.cls-5{font-size:26.29px;}</style></defs><title>资源 11</title><g id="图层_2" data-name="图层 2"><g id="图层_1-2" data-name="图层 1"><path class="cls-1" d="M.27,57.5,69,100.68c20.55,12.91,47.13-2.66,45.92-26.9L111.23,0"/><circle class="cls-2" cx="84.99" cy="75.51" r="30"/><polyline class="cls-2" points="114.99 75.51 114.96 105.33 114.96 105.51"/><line class="cls-2" x1="84.99" y1="105.51" x2="115.18" y2="105.37"/><circle class="cls-3" cx="114.96" cy="105.33" r="3.5"/><path class="cls-1" d="M500.27,57.5l-68.72,43.18C411,113.59,384.42,98,385.63,73.78L389.31,0"/><circle class="cls-2" cx="415.54" cy="75.51" r="30"/><polyline class="cls-2" points="385.54 75.51 385.57 105.33 385.57 105.51"/><line class="cls-2" x1="415.54" y1="105.51" x2="385.35" y2="105.37"/><circle class="cls-3" cx="385.57" cy="105.33" r="3.5"/><path class="cls-1" d="M.27,442.55,69,399.37c20.55-12.91,47.13,2.66,45.92,26.9L111.23,500"/><circle class="cls-2" cx="84.99" cy="424.54" r="30"/><polyline class="cls-2" points="114.99 424.54 114.96 394.72 114.96 394.54"/><line class="cls-2" x1="84.99" y1="394.54" x2="115.18" y2="394.68"/><circle class="cls-3" cx="114.96" cy="394.72" r="3.5"/><path class="cls-1" d="M498.65,442.55l-68.71-43.18C409.39,386.46,382.8,402,384,426.27L387.69,500"/><circle class="cls-2" cx="413.92" cy="424.54" r="30"/><polyline class="cls-2" points="383.92 424.54 383.95 394.72 383.95 394.54"/><line class="cls-2" x1="413.92" y1="394.54" x2="383.74" y2="394.68"/><circle class="cls-3" cx="383.95" cy="394.72" r="3.5"/><circle class="cls-2" cx="249.9" cy="75.96" r="30"/><line class="cls-2" x1="219.9" y1="75.96" x2="219.9" y2="0.02"/><line class="cls-1" x1="279.9" y1="75.96" x2="279.9" y2="0.02"/><circle class="cls-3" cx="249.9" cy="105.33" r="4"/><circle class="cls-2" cx="249.46" cy="424.59" r="30"/><line class="cls-2" x1="219.46" y1="424.59" x2="219.46" y2="500.52"/><line class="cls-1" x1="279.46" y1="424.59" x2="279.46" y2="500.52"/><circle class="cls-3" cx="249.46" cy="395.22" r="4"/><circle class="cls-2" cx="84.99" cy="250.02" r="30"/><line class="cls-2" x1="84.99" y1="280.02" x2="0.27" y2="280.02"/><line class="cls-1" x1="84.99" y1="220.02" x2="0.27" y2="220.02"/><circle class="cls-3" cx="114.36" cy="250.02" r="4"/><circle class="cls-2" cx="415.64" cy="250.02" r="30"/><line class="cls-2" x1="415.64" y1="280.02" x2="500.36" y2="280.02"/><line class="cls-1" x1="415.64" y1="220.02" x2="500.36" y2="220.02"/><circle class="cls-3" cx="386.26" cy="250.02" r="4"/><text class="cls-4" transform="translate(364.08 384.54)">外圆正常对刀</text><text class="cls-5" transform="translate(243.25 432.72) scale(1.02 1)">8</text><text class="cls-5" transform="translate(409.43 258.16) scale(1.02 1)">7</text><text class="cls-5" transform="translate(78.79 258.16) scale(1.02 1)">5</text><text class="cls-5" transform="translate(409.34 83.64) scale(1.02 1)">2</text><text class="cls-5" transform="translate(243.69 84.09) scale(1.02 1)">6</text><text class="cls-5" transform="translate(78.79 84.09) scale(1.02 1)">1</text><text class="cls-5" transform="translate(409.34 432.72) scale(1.02 1)">3</text><text class="cls-5" transform="translate(78.79 432.67) scale(1.02 1)">4</text><text class="cls-4" transform="translate(361.76 128.82)">内孔正常对刀</text><text class="cls-4" transform="translate(197.91 384.54)">外圆中心对刀</text><text class="cls-4" transform="translate(189.5 128.82)">内孔中心对刀</text><circle class="cls-2" cx="250.27" cy="250.02" r="30"/><circle class="cls-6" cx="250.31" cy="250.27" r="4"/><text class="cls-5" transform="translate(244.26 277.41) scale(1.02 1)">0<tspan class="cls-7"><tspan x="-29.93" y="21.6">圆心对刀</tspan></tspan></text></g></g></svg>