<?xml version="1.0" encoding="utf-8"?>
<!-- Generator: Adobe Illustrator 24.0.1, SVG Export Plug-In . SVG Version: 6.00 Build 0)  -->
<svg version="1.1" id="图层_1" xmlns="http://www.w3.org/2000/svg" xmlns:xlink="http://www.w3.org/1999/xlink" x="0px" y="0px"
	 viewBox="0 0 380 300" style="enable-background:new 0 0 380 300;" xml:space="preserve">
<style type="text/css">
	.st0{fill:none;stroke:#FF0000;stroke-width:2;stroke-miterlimit:10;}
	.st1{fill:none;stroke:#FF0000;stroke-width:2;stroke-linecap:round;stroke-miterlimit:10;}
</style>
<polyline class="st0" points="290,275 90,275 90,25 290,25 "/>
<path class="st1" d="M290,25"/>
<path class="st1" d="M290,275"/>
<line class="st1" x1="290" y1="43.6" x2="290" y2="25"/>
<path class="st1" d="M290,52.9l-9.3,9.3"/>
<path class="st1" d="M290,43.6c0,0,0,4.6,0,9.3"/>
<path class="st1" d="M290,62.2"/>
<path class="st1" d="M290,150c0,0,0-17.4,0-28.6c0,0-8.5-8.5-9.2-9.2c-26.6,0-50.8,0-50.8,0v-50c0,0,24.1,0,50.7,0"/>
<line class="st1" x1="290" y1="256.4" x2="290" y2="275"/>
<path class="st1" d="M290,247.1l-9.3-9.3"/>
<path class="st1" d="M290,256.4c0,0,0-4.6,0-9.3"/>
<path class="st1" d="M290,237.8"/>
<path class="st1" d="M290,150c0,0,0,17.4,0,28.6c0,0-8.5,8.5-9.2,9.2c-26.6,0-50.8,0-50.8,0v50c0,0,24.1,0,50.7,0"/>
</svg>
