<?xml version="1.0" encoding="utf-8"?>
<!-- Generator: Adobe Illustrator 24.0.1, SVG Export Plug-In . SVG Version: 6.00 Build 0)  -->
<svg version="1.1" id="图层_1" xmlns="http://www.w3.org/2000/svg" xmlns:xlink="http://www.w3.org/1999/xlink" x="0px" y="0px"
	 viewBox="0 0 380 300" style="enable-background:new 0 0 380 300;" xml:space="preserve">
<style type="text/css">
	.st0{fill:none;stroke:#FF0000;stroke-width:2;stroke-miterlimit:10;}
	.st1{fill:none;stroke:#FF0000;stroke-width:2;stroke-linecap:round;stroke-miterlimit:10;}
</style>
<polyline class="st0" points="290,275 90,275 90,25 290,25 "/>
<path class="st1" d="M290,25"/>
<path class="st1" d="M290,275"/>
<path class="st1" d="M290,62.2V25"/>
<path class="st1" d="M290,150v-37.8"/>
<path class="st1" d="M290,62.2"/>
<path class="st1" d="M290,112.2l-41.2-7.3c-19.8-3.5-19.8-32,0-35.5c23.8-4.2,41.2-7.3,41.2-7.3"/>
<path class="st1" d="M290,237.8V275"/>
<path class="st1" d="M290,150v37.8"/>
<path class="st1" d="M290,237.8"/>
<path class="st1" d="M290,187.8l-41.2,7.3c-19.8,3.5-19.8,32,0,35.5c23.8,4.2,41.2,7.3,41.2,7.3"/>
</svg>
