<?xml version="1.0" encoding="utf-8"?>
<!-- Generator: Adobe Illustrator 24.0.1, SVG Export Plug-In . SVG Version: 6.00 Build 0)  -->
<svg version="1.1" id="图层_1" xmlns="http://www.w3.org/2000/svg" xmlns:xlink="http://www.w3.org/1999/xlink" x="0px" y="0px"
	 viewBox="0 0 380 300" style="enable-background:new 0 0 380 300;" xml:space="preserve">
<style type="text/css">
	.st0{fill:none;stroke:#FF0000;stroke-width:2;stroke-miterlimit:10;}
	.st1{fill:none;stroke:#FF0000;stroke-width:2;stroke-linecap:round;stroke-miterlimit:10;}
</style>
<polyline class="st0" points="290,275 90,275 90,25 290,25 "/>
<path class="st1" d="M290,25"/>
<path class="st1" d="M290,275"/>
<path class="st1" d="M290,25c0,0,0,9.3,0,18.6l-60,29.2"/>
<line class="st1" x1="290" y1="150" x2="290" y2="112.2"/>
<path class="st1" d="M230,101.6c0,0,60,10.6,60,10.6"/>
<path class="st1" d="M230,72.8c0,8.5,0,20.4,0,28.8"/>
<path class="st1" d="M290,275c0,0,0-9.3,0-18.6l-60-29.2"/>
<path class="st1" d="M230,198.4c0,0,60-10.6,60-10.6"/>
<path class="st1" d="M230,227.2c0-8.5,0-20.4,0-28.8"/>
<line class="st1" x1="290" y1="150" x2="290" y2="187.8"/>
</svg>
