<?xml version="1.0" encoding="utf-8"?>
<!-- Generator: Adobe Illustrator 24.0.1, SVG Export Plug-In . SVG Version: 6.00 Build 0)  -->
<svg version="1.1" id="图层_1" xmlns="http://www.w3.org/2000/svg" xmlns:xlink="http://www.w3.org/1999/xlink" x="0px" y="0px"
	 viewBox="0 0 380 300" style="enable-background:new 0 0 380 300;" xml:space="preserve">
<style type="text/css">
	.st0{fill:none;stroke:#FF0000;stroke-width:2;stroke-linecap:round;stroke-miterlimit:10;}
</style>
<polyline class="st0" points="90,125 90,50 290,50 290,125 "/>
<path class="st0" d="M199.6,125c7.4-14.7,17.5-35,17.5-35"/>
<path class="st0" d="M240,90c0,0,10.1,20.3,17.5,35"/>
<line class="st0" x1="217.1" y1="90" x2="240" y2="90"/>
<line class="st0" x1="140" y1="90" x2="165" y2="90"/>
<path class="st0" d="M140,90c0,0-10.1,20.3-17.5,35c0,0-32.5,0-32.5,0"/>
<path class="st0" d="M165,90c0,0,10.1,20.3,17.5,35"/>
<line class="st0" x1="290" y1="125" x2="257.5" y2="125"/>
<line class="st0" x1="182.5" y1="125" x2="199.6" y2="125"/>
<polyline class="st0" points="90,174.9 90,249.9 290,249.9 290,174.9 "/>
<path class="st0" d="M199.6,174.9c7.4,14.7,17.5,35,17.5,35"/>
<path class="st0" d="M240,209.9c0,0,10.1-20.3,17.5-35"/>
<line class="st0" x1="217.1" y1="209.9" x2="240" y2="209.9"/>
<line class="st0" x1="140" y1="209.9" x2="165" y2="209.9"/>
<path class="st0" d="M140,209.9c0,0-10.1-20.3-17.5-35c0,0-32.5,0-32.5,0"/>
<path class="st0" d="M165,209.9c0,0,10.1-20.3,17.5-35"/>
<line class="st0" x1="290" y1="174.9" x2="257.5" y2="174.9"/>
<line class="st0" x1="182.5" y1="174.9" x2="199.6" y2="174.9"/>
</svg>
