<?xml version="1.0" encoding="utf-8"?>
<!-- Generator: Adobe Illustrator 24.0.1, SVG Export Plug-In . SVG Version: 6.00 Build 0)  -->
<svg version="1.1" id="图层_1" xmlns="http://www.w3.org/2000/svg" xmlns:xlink="http://www.w3.org/1999/xlink" x="0px" y="0px"
	 viewBox="0 0 380 300" style="enable-background:new 0 0 380 300;" xml:space="preserve">
<style type="text/css">
	.st0{fill:none;stroke:#FF0000;stroke-width:2;stroke-linecap:round;stroke-miterlimit:10;}
</style>
<polyline class="st0" points="290,125 290,50 90,50 90,125 "/>
<path class="st0" d="M120.5,125l11.7-30c5.2-13.5,24.3-13.5,29.5,0l11.7,30"/>
<polyline class="st0" points="290,174.5 290,249.5 90,249.5 90,174.5 "/>
<path class="st0" d="M206.6,125l11.7-30c5.2-13.5,24.3-13.5,29.5,0l11.7,30"/>
<line class="st0" x1="90" y1="125" x2="120.5" y2="125"/>
<line class="st0" x1="173.4" y1="125" x2="206.6" y2="125"/>
<line class="st0" x1="259.5" y1="125" x2="290" y2="125"/>
<path class="st0" d="M120.5,174.5l11.7,30c5.2,13.5,24.3,13.5,29.5,0l11.7-30"/>
<path class="st0" d="M206.6,174.5l11.7,30c5.2,13.5,24.3,13.5,29.5,0l11.7-30"/>
<line class="st0" x1="90" y1="174.5" x2="120.5" y2="174.5"/>
<line class="st0" x1="173.4" y1="174.5" x2="206.6" y2="174.5"/>
<line class="st0" x1="259.5" y1="174.5" x2="290" y2="174.5"/>
</svg>
