<?xml version="1.0" encoding="utf-8"?>
<!-- Generator: Adobe Illustrator 24.0.1, SVG Export Plug-In . SVG Version: 6.00 Build 0)  -->
<svg version="1.1" id="图层_1" xmlns="http://www.w3.org/2000/svg" xmlns:xlink="http://www.w3.org/1999/xlink" x="0px" y="0px"
	 viewBox="0 0 380 300" style="enable-background:new 0 0 380 300;" xml:space="preserve">
<style type="text/css">
	.st0{fill:none;stroke:#FF0000;stroke-width:2;stroke-linecap:round;stroke-miterlimit:10;}
</style>
<polyline class="st0" points="290,125 290,50 90,50 90,125 "/>
<polyline class="st0" points="290,174.5 290,249.5 90,249.5 90,174.5 "/>
<path class="st0" d="M290,125l-50.6,0.1c0,0-0.3,0-0.8,0c-4.2-23-24.4-40.4-48.6-40.4s-44.4,17.4-48.6,40.4c-0.5,0-0.8,0-0.8,0
	L90,125"/>
<path class="st0" d="M90,174.5l50.6-0.1c0,0,0.3,0,0.8,0c4.2,23,24.4,40.4,48.6,40.4s44.4-17.4,48.6-40.4c0.5,0,0.8,0,0.8,0
	l50.6,0.1"/>
</svg>
