<?xml version="1.0" encoding="utf-8"?>
<!-- Generator: Adobe Illustrator 24.0.1, SVG Export Plug-In . SVG Version: 6.00 Build 0)  -->
<svg version="1.1" id="图层_1" xmlns="http://www.w3.org/2000/svg" xmlns:xlink="http://www.w3.org/1999/xlink" x="0px" y="0px"
	 viewBox="0 0 380 300" style="enable-background:new 0 0 380 300;" xml:space="preserve">
<style type="text/css">
	.st0{fill:none;stroke:#FF0000;stroke-width:2;stroke-linecap:round;stroke-miterlimit:10;}
</style>
<polyline class="st0" points="290,200 290,250 90,250 90,50 290,50 290,100 "/>
<line class="st0" x1="180" y1="150" x2="180" y2="125"/>
<path class="st0" d="M290,100c0,0-41.9,0-74,0"/>
<path class="st0" d="M216,100l-32.3-5.7c-4.6-0.8-8.6,3.2-7.8,7.8l4,22.9"/>
<line class="st0" x1="180" y1="150" x2="180" y2="175"/>
<path class="st0" d="M290,200c0,0-41.9,0-74,0"/>
<path class="st0" d="M216,200l-32.3,5.7c-4.6,0.8-8.6-3.2-7.8-7.8l4-22.9"/>
</svg>
