<?xml version="1.0" encoding="utf-8"?>
<!-- Generator: Adobe Illustrator 24.0.1, SVG Export Plug-In . SVG Version: 6.00 Build 0)  -->
<svg version="1.1" xmlns="http://www.w3.org/2000/svg" xmlns:xlink="http://www.w3.org/1999/xlink" x="0px" y="0px"
	 viewBox="0 0 380 300" style="enable-background:new 0 0 380 300;" xml:space="preserve">
<style type="text/css">
	.st0{fill:#FF0000;}
	.st1{fill:none;stroke:#FF0000;stroke-width:0.25;stroke-miterlimit:10;}
	.st2{display:none;}
	.st3{display:inline;fill:none;stroke:#FF0000;stroke-width:2;stroke-miterlimit:10;}
	.st4{display:inline;fill:none;stroke:#FF0000;stroke-width:2;stroke-linecap:round;stroke-miterlimit:10;}
	.st5{display:inline;fill:none;stroke:#00FF00;stroke-width:2;stroke-linecap:round;stroke-miterlimit:10;}
	.st6{display:inline;fill:#FFFFFF;stroke:#FFFFFF;stroke-miterlimit:10;}
	.st7{display:inline;fill:none;stroke:#FFFFFF;stroke-miterlimit:10;}
	.st8{display:inline;fill:none;}
	.st9{display:inline;fill:#FFFFFF;}
	.st10{font-family:'AdobeSongStd-Light-GBpc-EUC-H';}
	.st11{font-size:12px;}
	.st12{fill:none;stroke:#FFFFFF;stroke-miterlimit:10;}
	.st13{fill:#FFFFFF;stroke:#FFFFFF;stroke-miterlimit:10;}
	.st14{fill:none;}
	.st15{fill:#FFFFFF;}
	.st16{fill:none;stroke:#FFFFFF;stroke-width:0.25;stroke-miterlimit:10;}
</style>
<g id="图层_1">
	<g id="XMLID_1_">
		<g>
			<path class="st0" d="M341,50v200c0-0.6-0.5-1-1-1h-1V51h1C340.5,51,341,50.5,341,50z"/>
			<path class="st0" d="M339,50h2c0,0.5-0.5,1-1,1h-1V50z"/>
			<path class="st0" d="M341,50h-2v1h-35.5c0-0.3,0-0.7,0-1c0-0.5-0.5-1-1-1H340C340.5,49,341,49.5,341,50z"/>
			<path class="st0" d="M339,250h2c0,0.6-0.5,1-1,1h-37.5c0.5,0,1-0.4,1-1c0-0.3,0-0.7,0-1H339V250z"/>
			<path class="st0" d="M341,250h-2v-1h1C340.5,249,341,249.4,341,250z"/>
			<path class="st0" d="M303.5,50c0,0.3,0,0.7,0,1h-1c-0.5,0-1-0.5-1-1s0.5-1,1-1S303.5,49.5,303.5,50z"/>
			<path class="st0" d="M303.5,249c0,0.3,0,0.7,0,1c0,0.6-0.5,1-1,1s-1-0.4-1-1s0.5-1,1-1H303.5z"/>
			<path class="st0" d="M302.5,51h1C303,76.6,282,97.3,256.2,97.3S209.5,76.6,208.9,51h1c0.6,0,1-0.5,1-1c0,25,20.3,45.3,45.3,45.3
				S301.5,75,301.5,50C301.5,50.5,302,51,302.5,51z"/>
			<path class="st0" d="M303.5,249h-1c-0.5,0-1,0.4-1,1c0-25-20.3-45.3-45.3-45.3S210.9,225,210.9,250c0-0.6-0.4-1-1-1h-1
				c0.5-25.6,21.5-46.3,47.3-46.3S303,223.4,303.5,249z"/>
			<path class="st0" d="M209.9,49c0.6,0,1,0.5,1,1s-0.4,1-1,1h-1c0-0.3,0-0.7,0-1C208.9,49.5,209.4,49,209.9,49z"/>
			<path class="st0" d="M209.9,249c0.6,0,1,0.4,1,1s-0.4,1-1,1c-0.5,0-1-0.4-1-1c0-0.3,0-0.7,0-1H209.9z"/>
			<path class="st0" d="M170.1,49h39.9c-0.5,0-1,0.5-1,1c0,0.3,0,0.7,0,1h-37.9c0-0.3,0-0.7,0-1C171.1,49.5,170.6,49,170.1,49z"/>
			<path class="st0" d="M209.9,251h-39.9c0.5,0,1-0.4,1-1c0-0.3,0-0.7,0-1h37.9c0,0.3,0,0.7,0,1C208.9,250.6,209.4,251,209.9,251z"
				/>
			<path class="st0" d="M171.1,50c0,0.3,0,0.7,0,1h-1c-0.6,0-1-0.5-1-1s0.4-1,1-1C170.6,49,171.1,49.5,171.1,50z"/>
			<path class="st0" d="M171.1,249c0,0.3,0,0.7,0,1c0,0.6-0.5,1-1,1c-0.6,0-1-0.4-1-1s0.4-1,1-1H171.1z"/>
			<path class="st0" d="M170.1,51h1c-0.5,25.6-21.5,46.3-47.3,46.3S77,76.6,76.5,51h1c0.6,0,1-0.5,1-1c0,25,20.3,45.3,45.3,45.3
				S169.1,75,169.1,50C169.1,50.5,169.5,51,170.1,51z"/>
			<path class="st0" d="M171.1,249h-1c-0.6,0-1,0.4-1,1c0-25-20.3-45.3-45.3-45.3S78.5,225,78.5,250c0-0.6-0.4-1-1-1h-1
				c0.5-25.6,21.5-46.3,47.3-46.3S170.5,223.4,171.1,249z"/>
			<path class="st0" d="M77.5,49c0.6,0,1,0.5,1,1s-0.4,1-1,1h-1c0-0.3,0-0.7,0-1C76.5,49.5,76.9,49,77.5,49z"/>
			<path class="st0" d="M77.5,249c0.6,0,1,0.4,1,1s-0.4,1-1,1s-1-0.4-1-1c0-0.3,0-0.7,0-1H77.5z"/>
			<path class="st0" d="M40,49h37.5c-0.6,0-1,0.5-1,1c0,0.3,0,0.7,0,1H41v-1h-2C39,49.5,39.5,49,40,49z"/>
			<path class="st0" d="M77.5,251H40c-0.5,0-1-0.4-1-1h2v-1h35.5c0,0.3,0,0.7,0,1C76.5,250.6,76.9,251,77.5,251z"/>
			<path class="st0" d="M41,249v1h-2c0-0.6,0.5-1,1-1H41z"/>
			<path class="st0" d="M41,51v198h-1c-0.5,0-1,0.4-1,1V50c0,0.5,0.5,1,1,1H41z"/>
			<path class="st0" d="M41,50v1h-1c-0.5,0-1-0.5-1-1H41z"/>
		</g>
		<g>
			<line class="st1" x1="339" y1="249" x2="339" y2="51"/>
			<line class="st1" x1="341" y1="50" x2="341" y2="250"/>
			<path class="st1" d="M302.5,49H340c0.5,0,1,0.5,1,1"/>
			<line class="st1" x1="339" y1="51" x2="303.5" y2="51"/>
			<path class="st1" d="M339,51v-1h2c0,0.5-0.5,1-1,1H339z"/>
			<path class="st1" d="M339,249h1c0.5,0,1,0.4,1,1"/>
			<path class="st1" d="M303.5,249H339v1h2c0,0.6-0.5,1-1,1h-37.5"/>
			<path class="st1" d="M301.5,50c0-0.5,0.5-1,1-1s1,0.5,1,1c0,0.3,0,0.7,0,1"/>
			<path class="st1" d="M303.5,249c0,0.3,0,0.7,0,1c0,0.6-0.5,1-1,1s-1-0.4-1-1"/>
			<path class="st1" d="M210.9,50c0,25,20.3,45.3,45.3,45.3S301.5,75,301.5,50c0,0.5,0.5,1,1,1h1C303,76.6,282,97.3,256.2,97.3
				S209.5,76.6,208.9,51"/>
			<path class="st1" d="M208.9,249c0.5-25.6,21.5-46.3,47.3-46.3s46.7,20.7,47.3,46.3h-1c-0.5,0-1,0.4-1,1c0-25-20.3-45.3-45.3-45.3
				S210.9,225,210.9,250"/>
			<path class="st1" d="M209.9,49c0.6,0,1,0.5,1,1s-0.4,1-1,1h-1"/>
			<path class="st1" d="M208.9,249h1c0.6,0,1,0.4,1,1s-0.4,1-1,1"/>
			<path class="st1" d="M170.1,49h39.9c-0.5,0-1,0.5-1,1c0,0.3,0,0.7,0,1h-37.9"/>
			<path class="st1" d="M171.1,249h37.9c0,0.3,0,0.7,0,1c0,0.6,0.5,1,1,1h-39.9"/>
			<path class="st1" d="M169.1,50c0-0.5,0.4-1,1-1c0.5,0,1,0.5,1,1c0,0.3,0,0.7,0,1"/>
			<path class="st1" d="M171.1,249c0,0.3,0,0.7,0,1c0,0.6-0.5,1-1,1c-0.6,0-1-0.4-1-1"/>
			<path class="st1" d="M78.5,50c0,25,20.3,45.3,45.3,45.3S169.1,75,169.1,50c0,0.5,0.4,1,1,1h1c-0.5,25.6-21.5,46.3-47.3,46.3
				S77,76.6,76.5,51"/>
			<path class="st1" d="M76.5,249c0.5-25.6,21.5-46.3,47.3-46.3s46.8,20.7,47.3,46.3h-1c-0.6,0-1,0.4-1,1c0-25-20.3-45.3-45.3-45.3
				S78.5,225,78.5,250"/>
			<path class="st1" d="M77.5,49c0.6,0,1,0.5,1,1s-0.4,1-1,1h-1"/>
			<path class="st1" d="M76.5,249h1c0.6,0,1,0.4,1,1s-0.4,1-1,1"/>
			<path class="st1" d="M39,50c0-0.5,0.5-1,1-1h37.5c-0.6,0-1,0.5-1,1c0,0.3,0,0.7,0,1H41"/>
			<path class="st1" d="M41,249h35.5c0,0.3,0,0.7,0,1c0,0.6,0.4,1,1,1H40c-0.5,0-1-0.4-1-1"/>
			<polyline class="st1" points="41,249 41,250 39,250 			"/>
			<path class="st1" d="M41,51v198h-1c-0.5,0-1,0.4-1,1V50"/>
			<path class="st1" d="M39,50h2v1h-1C39.5,51,39,50.5,39,50z"/>
		</g>
	</g>
</g>
<g id="图层_2" class="st2">
	<line class="st3" x1="40" y1="250" x2="40" y2="50"/>
	<line class="st3" x1="340" y1="50" x2="340" y2="250"/>
	<line class="st4" x1="68.4" y1="50" x2="40" y2="50"/>
	<line class="st4" x1="311.6" y1="50" x2="340" y2="50"/>
	<path class="st4" d="M210.7,58.2c3.9,21.7,22.8,38.1,45.6,38.1c22.8,0,41.7-16.5,45.6-38.1"/>
	<line class="st4" x1="179.2" y1="50" x2="200.8" y2="50"/>
	<path class="st4" d="M78.2,58.2c3.9,21.7,22.8,38.1,45.6,38.1s41.7-16.5,45.6-38.1"/>
	<path class="st5" d="M78.2,58.2c-0.8-4.7-5-8.2-9.8-8.2"/>
	<path class="st5" d="M169.3,58.2c0.8-4.7,5-8.2,9.8-8.2"/>
	<path class="st5" d="M200.8,50c4.8,0,9,3.4,9.8,8.2"/>
	<path class="st5" d="M301.8,58.2c0.8-4.7,5-8.2,9.8-8.2"/>
	<line class="st4" x1="311.6" y1="250" x2="340" y2="250"/>
	<line class="st4" x1="68.4" y1="250" x2="40" y2="250"/>
	<path class="st4" d="M169.3,241.8c-3.9-21.7-22.8-38.1-45.6-38.1s-41.7,16.5-45.6,38.1"/>
	<line class="st4" x1="200.8" y1="250" x2="179.2" y2="250"/>
	<path class="st4" d="M301.8,241.8c-3.9-21.7-22.8-38.1-45.6-38.1c-22.8,0-41.7,16.5-45.6,38.1"/>
	<path class="st5" d="M301.8,241.8c0.8,4.7,5,8.2,9.8,8.2"/>
	<path class="st5" d="M210.7,241.8c-0.8,4.7-5,8.2-9.8,8.2"/>
	<path class="st5" d="M179.2,250c-4.8,0-9-3.4-9.8-8.2"/>
	<path class="st5" d="M78.2,241.8c-0.8,4.7-5,8.2-9.8,8.2"/>
	<path class="st6" d="M205.4,53.9l-11.3,12.7c-0.1,0.1-0.1,0.2,0,0.3l5.9,3.4c0.1,0.1,0.2,0,0.3-0.1l5.3-16.1
		C205.8,53.9,205.6,53.8,205.4,53.9z"/>
	<line class="st7" x1="200.1" y1="63.5" x2="188.7" y2="80.6"/>
	<rect x="167.8" y="80.3" class="st8" width="35.1" height="17.7"/>
	<text transform="matrix(1 0 0 1 175.5107 90.8627)" class="st9 st10 st11">小R</text>
</g>
<g id="图层_3">
	<line class="st12" x1="354.2" y1="65.8" x2="354.2" y2="234.3"/>
	<line class="st12" x1="340" y1="50" x2="366.1" y2="50.1"/>
	<line class="st12" x1="340" y1="250" x2="366.1" y2="249.5"/>
	<path class="st13" d="M354.4,249.2l3.4-16.6c0-0.1-0.1-0.2-0.2-0.2h-6.8c-0.1,0-0.2,0.1-0.2,0.2l3.4,16.6
		C354.1,249.3,354.3,249.3,354.4,249.2z"/>
	<path class="st13" d="M354.1,51.7l-3.4,16.6c0,0.1,0.1,0.2,0.2,0.2l6.8,0c0.1,0,0.2-0.1,0.2-0.2l-3.4-16.6
		C354.4,51.5,354.1,51.5,354.1,51.7z"/>
	<rect x="350.6" y="132.5" class="st14" width="17.7" height="35.1"/>
	<text transform="matrix(0 1 -1 0 357.8047 138.0016)" class="st15 st10 st11">大径</text>
	<path class="st13" d="M123.8,96.4l-3.4,16.6c0,0.1,0.1,0.2,0.2,0.2l6.8,0c0.1,0,0.2-0.1,0.2-0.2l-3.4-16.6
		C124.1,96.2,123.8,96.2,123.8,96.4z"/>
	<path class="st13" d="M123.8,203.7l3.4-16.6c0-0.1-0.1-0.2-0.2-0.2h-6.8c-0.1,0-0.2,0.1-0.2,0.2l3.4,16.6
		C123.5,203.9,123.7,203.9,123.8,203.7z"/>
	<line class="st12" x1="124" y1="104.6" x2="124" y2="186.9"/>
	<rect x="123.6" y="128.2" class="st14" width="17.7" height="35.1"/>
	<text transform="matrix(0 1 -1 0 130.7881 133.7591)" class="st15 st10 st11">小径</text>
	<line class="st12" x1="89.3" y1="39.3" x2="153.2" y2="39.3"/>
	<path class="st13" d="M78.4,39.5L95,42.9c0.1,0,0.2-0.1,0.2-0.2l0-6.8c0-0.1-0.1-0.2-0.2-0.2l-16.6,3.4
		C78.2,39.2,78.2,39.5,78.4,39.5z"/>
	<path class="st13" d="M170.1,39.3l-16.6,3.4c-0.1,0-0.2-0.1-0.2-0.2v-6.8c0-0.1,0.1-0.2,0.2-0.2l16.6,3.4
		C170.3,39,170.3,39.3,170.1,39.3z"/>
	<rect x="106.4" y="21.6" class="st14" width="35.1" height="17.7"/>
	<text transform="matrix(1 0 0 1 111.9565 32.1515)" class="st15 st10 st11">槽宽</text>
	<line class="st12" x1="77.5" y1="50" x2="77.6" y2="30.5"/>
	<line class="st12" x1="170.1" y1="50" x2="170.1" y2="30.5"/>
	<path class="st13" d="M239.6,95.8l-11.3,12.7c-0.1,0.1-0.1,0.2,0,0.3l5.9,3.4c0.1,0.1,0.2,0,0.3-0.1l5.3-16.1
		C240,95.8,239.8,95.7,239.6,95.8z"/>
	<line class="st12" x1="234.3" y1="105.4" x2="222.9" y2="122.5"/>
	<rect x="201.9" y="122.2" class="st14" width="35.1" height="17.7"/>
	<text transform="matrix(1 0 0 1 209.7049 132.7825)" class="st15 st10 st11">大R</text>
	<path class="st13" d="M256.3,39.5l16.6,3.4c0.1,0,0.2-0.1,0.2-0.2v-6.8c0-0.1-0.1-0.2-0.2-0.2l-16.6,3.4
		C256.1,39.2,256.1,39.5,256.3,39.5z"/>
	<path class="st13" d="M340,39.3l-16.6,3.4c-0.1,0-0.2-0.1-0.2-0.2v-6.8c0-0.1,0.1-0.2,0.2-0.2L340,39C340.2,39,340.2,39.3,340,39.3
		z"/>
	<rect x="280.6" y="21.6" class="st14" width="35.1" height="17.7"/>
	<text transform="matrix(1 0 0 1 283.3553 32.1515)" class="st15 st10 st11">长度1</text>
	<line class="st12" x1="256.2" y1="50" x2="256.3" y2="30.5"/>
	<line class="st12" x1="340" y1="50" x2="340.1" y2="30.5"/>
	<line class="st12" x1="263.1" y1="39.2" x2="327" y2="39.2"/>
	<line class="st14" x1="256.2" y1="96.3" x2="256.2" y2="50"/>
	<line class="st16" x1="256.2" y1="203.7" x2="256.2" y2="260.1"/>
	<line class="st16" x1="256.2" y1="50" x2="256.2" y2="97.3"/>
	<line class="st12" x1="135.5" y1="268.4" x2="242.2" y2="268.4"/>
	<path class="st13" d="M124.5,268.6l16.6,3.4c0.1,0,0.2-0.1,0.2-0.2V265c0-0.1-0.1-0.2-0.2-0.2l-16.6,3.4
		C124.3,268.2,124.3,268.5,124.5,268.6z"/>
	<path class="st13" d="M256.2,268.9l-16.5,3.4c-0.1,0-0.2-0.1-0.2-0.2v-6.8c0-0.1,0.1-0.2,0.2-0.2l16.5,3.4
		C256.3,268.6,256.3,268.9,256.2,268.9z"/>
	<rect x="171.3" y="269.8" class="st14" width="35.1" height="17.7"/>
	<text transform="matrix(1 0 0 1 176.8373 280.3949)" class="st15 st10 st11">距离</text>
	<line class="st12" x1="123.6" y1="279.1" x2="123.7" y2="259.5"/>
	<line class="st12" x1="256.2" y1="279.6" x2="256.2" y2="260.1"/>
	<line class="st16" x1="123.7" y1="203.1" x2="123.7" y2="259.5"/>
	<path class="st13" d="M302.5,260.1l-16.6-3.4c-0.1,0-0.2,0.1-0.2,0.2v6.8c0,0.1,0.1,0.2,0.2,0.2l16.6-3.4
		C302.7,260.4,302.7,260.1,302.5,260.1z"/>
	<path class="st13" d="M341.8,259.9l16.6-3.4c0.1,0,0.2,0.1,0.2,0.2v6.8c0,0.1-0.1,0.2-0.2,0.2l-16.6-3.4
		C341.7,260.2,341.7,260,341.8,259.9z"/>
	<rect x="305.2" y="263.7" class="st14" width="35.1" height="17.7"/>
	<text transform="matrix(1 0 0 1 307.9779 274.3082)" class="st15 st10 st11">长度2</text>
	<line class="st12" x1="302.4" y1="269.5" x2="302.5" y2="250"/>
	<line class="st12" x1="340.9" y1="269.5" x2="341" y2="250"/>
	<line class="st12" x1="263.1" y1="260.3" x2="285.7" y2="260.3"/>
	<line class="st12" x1="352.8" y1="260.1" x2="379.7" y2="260.1"/>
</g>
</svg>
