<?xml version="1.0" encoding="utf-8"?>
<!-- Generator: Adobe Illustrator 24.0.1, SVG Export Plug-In . SVG Version: 6.00 Build 0)  -->
<svg version="1.1" id="图层_1" xmlns="http://www.w3.org/2000/svg" xmlns:xlink="http://www.w3.org/1999/xlink" x="0px" y="0px"
	 viewBox="0 0 380 300" style="enable-background:new 0 0 380 300;" xml:space="preserve">
<style type="text/css">
	.st0{fill:none;stroke:#FF0000;stroke-width:2;stroke-miterlimit:10;}
	.st1{fill:none;stroke:#FF0000;stroke-width:2;stroke-linecap:round;stroke-miterlimit:10;}
</style>
<line class="st0" x1="40" y1="250" x2="40" y2="50"/>
<line class="st0" x1="340" y1="50" x2="340" y2="250"/>
<line class="st1" x1="40" y1="50" x2="90" y2="50"/>
<line class="st1" x1="290" y1="50" x2="340" y2="50"/>
<path class="st1" d="M137.4,84.1C115.4,84.1,96.6,69.8,90,50"/>
<path class="st1" d="M290,50c-6.6,19.8-25.4,34.1-47.4,34.1"/>
<line class="st1" x1="137.4" y1="84.1" x2="242.6" y2="84.1"/>
<line class="st1" x1="40" y1="250" x2="90" y2="250"/>
<line class="st1" x1="290" y1="250" x2="340" y2="250"/>
<path class="st1" d="M137.4,215.9c-22.1,0-40.8,14.3-47.4,34.1"/>
<path class="st1" d="M290,250c-6.6-19.8-25.4-34.1-47.4-34.1"/>
<line class="st1" x1="137.4" y1="215.9" x2="242.6" y2="215.9"/>
</svg>
