<?xml version="1.0" encoding="utf-8"?>
<!-- Generator: Adobe Illustrator 24.0.1, SVG Export Plug-In . SVG Version: 6.00 Build 0)  -->
<svg version="1.1" xmlns="http://www.w3.org/2000/svg" xmlns:xlink="http://www.w3.org/1999/xlink" x="0px" y="0px"
	 viewBox="0 0 380 300" style="enable-background:new 0 0 380 300;" xml:space="preserve">
<style type="text/css">
	.st0{fill:#0F0109;}
	.st1{fill:none;stroke:#FF0000;stroke-width:2;stroke-miterlimit:10;}
	.st2{fill:none;stroke:#FF0000;stroke-width:2;stroke-linecap:round;stroke-miterlimit:10;}
	.st3{display:none;}
	.st4{display:inline;}
	.st5{fill:none;stroke:#00FF00;stroke-width:2;stroke-linecap:round;stroke-miterlimit:10;}
	.st6{display:inline;fill:#FFFFFF;stroke:#FFFFFF;stroke-miterlimit:10;}
	.st7{display:inline;fill:none;stroke:#FFFFFF;stroke-miterlimit:10;}
	.st8{display:inline;fill:none;}
	.st9{display:inline;enable-background:new    ;}
	.st10{fill:#FFFFFF;}
	.st11{font-family:'AdobeSongStd-Light-GBpc-EUC-H';}
	.st12{font-size:12px;}
	.st13{font-family:'ArialMT';}
	.st14{fill:none;stroke:#FFFFFF;stroke-miterlimit:10;}
	.st15{fill:#FFFFFF;stroke:#FFFFFF;stroke-miterlimit:10;}
	.st16{fill:none;}
	.st17{enable-background:new    ;}
	.st18{fill:none;stroke:#FFFFFF;stroke-width:0.25;stroke-miterlimit:10;}
</style>
<g id="图层_1">
	<g id="图层_1_1_">
		<g id="XMLID_1_">
			<g>
				<path class="st0" d="M332.8,46.1v200h-37.5c0-25.6-20.7-46.3-46.3-46.3s-46.3,20.7-46.3,46.3h-39.8c0-25.6-20.7-46.3-46.3-46.3
					s-46.3,20.7-46.3,46.3H32.8v-200h37.5c0,25.6,20.7,46.3,46.3,46.3s46.3-20.7,46.3-46.3h39.8c0,25.6,20.7,46.3,46.3,46.3
					s46.3-20.7,46.3-46.3H332.8z"/>
			</g>
			<g>
				<line class="st1" x1="32.8" y1="246.1" x2="32.8" y2="46.1"/>
				<line class="st1" x1="332.8" y1="46.1" x2="332.8" y2="246.1"/>
				<line class="st2" x1="32.8" y1="46.1" x2="70.3" y2="46.1"/>
				<line class="st2" x1="295.3" y1="46.1" x2="332.8" y2="46.1"/>
				<path class="st2" d="M162.9,46.1c0,25.6-20.7,46.3-46.3,46.3S70.3,71.7,70.3,46.1"/>
				<path class="st2" d="M295.3,46.1c0,25.6-20.7,46.3-46.3,46.3s-46.3-20.7-46.3-46.3"/>
				<line class="st2" x1="162.9" y1="46.1" x2="202.7" y2="46.1"/>
				<line class="st2" x1="332.8" y1="246.1" x2="295.3" y2="246.1"/>
				<line class="st2" x1="70.3" y1="246.1" x2="32.8" y2="246.1"/>
				<path class="st2" d="M202.7,246.1c0-25.6,20.7-46.3,46.3-46.3s46.3,20.7,46.3,46.3"/>
				<path class="st2" d="M70.3,246.1c0-25.6,20.7-46.3,46.3-46.3s46.3,20.7,46.3,46.3"/>
				<line class="st2" x1="202.7" y1="246.1" x2="162.9" y2="246.1"/>
			</g>
		</g>
	</g>
</g>
<g id="图层_2" class="st3">
	<g id="XMLID_2_" class="st4">
		<g>
			<path class="st0" d="M332.8,46.1v200h-28.4c-4.8,0-9-3.5-9.8-8.2c-3.9-21.7-22.8-38.1-45.6-38.1s-41.7,16.5-45.6,38.1h0.1
				c-0.8,4.7-5,8.2-9.8,8.2h-0.1H172c0,0-0.1,0-0.1,0c-4.8-0.1-8.9-3.4-9.7-8.2h-0.1c-3.9-21.7-22.8-38.1-45.6-38.1
				s-41.7,16.5-45.6,38.1H71c-0.8,4.7-5,8.2-9.8,8.2H32.8v-200h28.4c4.8,0,9,3.5,9.8,8.2c3.9,21.7,22.8,38.1,45.6,38.1
				s41.7-16.5,45.6-38.1h-0.1c0.8-4.7,5-8.2,9.8-8.2h0.1h21.6c0,0,0.1,0,0.1,0c4.8,0,8.9,3.4,9.7,8.2h0.1
				c3.9,21.7,22.8,38.1,45.6,38.1s41.7-16.5,45.6-38.1h-0.1c0.8-4.7,5-8.2,9.8-8.2H332.8z"/>
		</g>
		<g>
			<line class="st1" x1="32.8" y1="246.1" x2="32.8" y2="46.1"/>
			<line class="st1" x1="332.8" y1="46.1" x2="332.8" y2="246.1"/>
			<line class="st2" x1="61.2" y1="46.1" x2="32.8" y2="46.1"/>
			<line class="st2" x1="304.4" y1="46.1" x2="332.8" y2="46.1"/>
			<path class="st2" d="M203.5,54.3c3.9,21.7,22.8,38.1,45.6,38.1s41.7-16.5,45.6-38.1"/>
			<line class="st2" x1="172" y1="46.1" x2="193.6" y2="46.1"/>
			<path class="st2" d="M71,54.3c3.9,21.7,22.8,38.1,45.6,38.1s41.7-16.5,45.6-38.1"/>
			<path class="st5" d="M71,54.3c-0.8-4.7-5-8.2-9.8-8.2"/>
			<path class="st5" d="M162.1,54.3c0.8-4.7,5-8.2,9.8-8.2"/>
			<path class="st5" d="M193.6,46.1C193.7,46.1,193.7,46.1,193.6,46.1c4.9,0,9,3.4,9.8,8.2"/>
			<path class="st5" d="M294.6,54.3c0.8-4.7,5-8.2,9.8-8.2"/>
			<line class="st2" x1="304.4" y1="246.1" x2="332.8" y2="246.1"/>
			<line class="st2" x1="61.2" y1="246.1" x2="32.8" y2="246.1"/>
			<path class="st2" d="M162.1,237.9c-3.9-21.7-22.8-38.1-45.6-38.1s-41.7,16.5-45.6,38.1"/>
			<line class="st2" x1="193.6" y1="246.1" x2="172" y2="246.1"/>
			<path class="st2" d="M294.6,237.9c-3.9-21.7-22.8-38.1-45.6-38.1s-41.7,16.5-45.6,38.1"/>
			<path class="st5" d="M294.6,237.9c0.8,4.7,5,8.2,9.8,8.2"/>
			<path class="st5" d="M203.5,237.9c-0.8,4.7-5,8.2-9.8,8.2"/>
			<path class="st5" d="M172,246.1c0,0-0.1,0-0.1,0c-4.8-0.1-8.9-3.4-9.7-8.2"/>
			<path class="st5" d="M71,237.9c-0.8,4.7-5,8.2-9.8,8.2"/>
		</g>
	</g>
	<path class="st6" d="M198.5,50.2l-11.3,12.7c-0.1,0.1-0.1,0.2,0,0.3l5.9,3.4c0.1,0.1,0.2,0,0.3-0.1l5.3-16.1
		C198.9,50.2,198.7,50.1,198.5,50.2z"/>
	<line class="st7" x1="193.2" y1="59.8" x2="181.8" y2="76.9"/>
	<rect x="160.9" y="76.6" class="st8" width="35.1" height="17.7"/>
	<text transform="matrix(1 0 0 1 168.6368 87.1279)" class="st9"><tspan x="0" y="0" class="st10 st11 st12">小</tspan><tspan x="12" y="0" class="st10 st13 st12">R</tspan></text>
	<path class="st6" d="M305.2,256.2l-16.6-3.4c-0.1,0-0.2,0.1-0.2,0.2v6.8c0,0.1,0.1,0.2,0.2,0.2l16.6-3.4
		C305.4,256.5,305.4,256.2,305.2,256.2z"/>
	<path class="st6" d="M334.4,256l16.6-3.4c0.1,0,0.2,0.1,0.2,0.2v6.8c0,0.1-0.1,0.2-0.2,0.2l-16.6-3.4
		C334.3,256.3,334.3,256.1,334.4,256z"/>
	<rect x="301.9" y="267" class="st8" width="35.1" height="17.7"/>
	<text transform="matrix(1 0 0 1 304.5828 277.4947)" class="st9"><tspan x="0" y="0" class="st10 st11 st12">长度</tspan><tspan x="24" y="0" class="st10 st13 st12">2</tspan></text>
	<line class="st7" x1="305.1" y1="265.6" x2="305.2" y2="246.1"/>
	<line class="st7" x1="333.5" y1="265.6" x2="333.6" y2="246.1"/>
	<line class="st7" x1="261.5" y1="256.4" x2="288.4" y2="256.4"/>
	<line class="st7" x1="345.4" y1="256.2" x2="372.3" y2="256.2"/>
</g>
<g id="图层_3" class="st3">
	<g id="图层_3_1_" class="st4">
		<line class="st14" x1="347" y1="61.9" x2="347" y2="230.4"/>
		<line class="st14" x1="332.8" y1="46.1" x2="358.9" y2="46.2"/>
		<line class="st14" x1="332.8" y1="246.1" x2="358.9" y2="245.6"/>
		<path class="st15" d="M347.2,245.3l3.4-16.6c0-0.1-0.1-0.2-0.2-0.2h-6.8c-0.1,0-0.2,0.1-0.2,0.2l3.4,16.6
			C346.9,245.4,347.1,245.4,347.2,245.3z"/>
		<path class="st15" d="M346.9,47.8l-3.4,16.6c0,0.1,0.1,0.2,0.2,0.2h6.8c0.1,0,0.2-0.1,0.2-0.2l-3.4-16.6
			C347.2,47.6,346.9,47.6,346.9,47.8z"/>
		<rect x="343.4" y="128.6" class="st16" width="17.7" height="35.1"/>
		<text transform="matrix(0 1 -1 0 350.6309 134.0668)" class="st10 st11 st12">大径</text>
		<path class="st15" d="M116.6,92.5l-3.4,16.6c0,0.1,0.1,0.2,0.2,0.2h6.8c0.1,0,0.2-0.1,0.2-0.2L117,92.5
			C116.9,92.3,116.6,92.3,116.6,92.5z"/>
		<path class="st15" d="M116.6,199.8l3.4-16.6c0-0.1-0.1-0.2-0.2-0.2H113c-0.1,0-0.2,0.1-0.2,0.2l3.4,16.6
			C116.3,200,116.5,200,116.6,199.8z"/>
		<line class="st14" x1="116.8" y1="100.7" x2="116.8" y2="183"/>
		<rect x="116.4" y="124.3" class="st16" width="17.7" height="35.1"/>
		<text transform="matrix(0 1 -1 0 123.6152 129.8243)" class="st10 st11 st12">小径</text>
		<line class="st14" x1="82.1" y1="35.4" x2="146" y2="35.4"/>
		<path class="st15" d="M71.2,35.6L87.8,39c0.1,0,0.2-0.1,0.2-0.2V32c0-0.1-0.1-0.2-0.2-0.2l-16.6,3.4C71,35.3,71,35.6,71.2,35.6z"
			/>
		<path class="st15" d="M162.9,35.4l-16.6,3.4c-0.1,0-0.2-0.1-0.2-0.2v-6.8c0-0.1,0.1-0.2,0.2-0.2l16.6,3.4
			C163.1,35.1,163.1,35.4,162.9,35.4z"/>
		<rect x="99.2" y="17.7" class="st16" width="35.1" height="17.7"/>
		<text transform="matrix(1 0 0 1 104.7826 28.2167)" class="st10 st11 st12">槽宽</text>
		<line class="st14" x1="70.3" y1="46.1" x2="70.4" y2="26.6"/>
		<line class="st14" x1="162.9" y1="46.1" x2="162.9" y2="26.6"/>
		<path class="st15" d="M232.4,91.9l-11.3,12.7c-0.1,0.1-0.1,0.2,0,0.3l5.9,3.4c0.1,0.1,0.2,0,0.3-0.1l5.3-16.1
			C232.8,91.9,232.6,91.8,232.4,91.9z"/>
		<line class="st14" x1="227.1" y1="101.5" x2="215.7" y2="118.6"/>
		<rect x="194.7" y="118.3" class="st16" width="35.1" height="17.7"/>
		<text transform="matrix(1 0 0 1 202.531 128.8477)" class="st17"><tspan x="0" y="0" class="st10 st11 st12">大</tspan><tspan x="12" y="0" class="st10 st13 st12">R</tspan></text>
		<path class="st15" d="M249.1,35.6l16.6,3.4c0.1,0,0.2-0.1,0.2-0.2V32c0-0.1-0.1-0.2-0.2-0.2l-16.6,3.4
			C248.9,35.3,248.9,35.6,249.1,35.6z"/>
		<path class="st15" d="M332.8,35.4l-16.6,3.4c-0.1,0-0.2-0.1-0.2-0.2v-6.8c0-0.1,0.1-0.2,0.2-0.2l16.6,3.5
			C333,35.1,333,35.4,332.8,35.4z"/>
		<rect x="273.4" y="17.7" class="st16" width="35.1" height="17.7"/>
		<text transform="matrix(1 0 0 1 276.1814 28.2167)" class="st17"><tspan x="0" y="0" class="st10 st11 st12">长度</tspan><tspan x="24" y="0" class="st10 st13 st12">1</tspan></text>
		<line class="st14" x1="249" y1="46.1" x2="249.1" y2="26.6"/>
		<line class="st14" x1="332.8" y1="46.1" x2="332.9" y2="26.6"/>
		<line class="st14" x1="255.9" y1="35.3" x2="319.8" y2="35.3"/>
		<line class="st16" x1="249" y1="92.4" x2="249" y2="46.1"/>
		<line class="st18" x1="249" y1="46.1" x2="249" y2="92.4"/>
	</g>
</g>
</svg>
