<?xml version="1.0" encoding="utf-8"?>
<!-- Generator: Adobe Illustrator 24.0.1, SVG Export Plug-In . SVG Version: 6.00 Build 0)  -->
<svg version="1.1" id="图层_1" xmlns="http://www.w3.org/2000/svg" xmlns:xlink="http://www.w3.org/1999/xlink" x="0px" y="0px"
	 viewBox="0 0 380 300" style="enable-background:new 0 0 380 300;" xml:space="preserve">
<style type="text/css">
	.st0{fill:none;stroke:#FF0000;stroke-width:2;stroke-linecap:round;stroke-miterlimit:10;}
</style>
<line class="st0" x1="40" y1="250" x2="40" y2="50"/>
<line class="st0" x1="340" y1="50" x2="340" y2="250"/>
<line class="st0" x1="40" y1="50" x2="90" y2="50"/>
<line class="st0" x1="340" y1="50" x2="290" y2="50"/>
<path class="st0" d="M189.7,222.6"/>
<path class="st0" d="M132.9,124.3"/>
<path class="st0" d="M190,110.6c-28.6,0-55.3-8-78-21.9C111.8,88.4,90,50,90,50"/>
<path class="st0" d="M190,110.6c28.6,0,55.3-8,78-21.9c0.2-0.3,22-38.8,22-38.8"/>
<line class="st0" x1="40" y1="250" x2="90" y2="250"/>
<line class="st0" x1="340" y1="250" x2="290" y2="250"/>
<path class="st0" d="M132.9,175.7"/>
<path class="st0" d="M190,189.4c-28.6,0-55.3,8-78,21.9c-0.2,0.3-22,38.8-22,38.8"/>
<path class="st0" d="M190,189.4c28.6,0,55.3,8,78,21.9c0.2,0.3,22,38.8,22,38.8"/>
</svg>
