<?xml version="1.0" encoding="utf-8"?>
<!-- Generator: Adobe Illustrator 24.0.1, SVG Export Plug-In . SVG Version: 6.00 Build 0)  -->
<svg version="1.1" xmlns="http://www.w3.org/2000/svg" xmlns:xlink="http://www.w3.org/1999/xlink" x="0px" y="0px"
	 viewBox="0 0 380 300" style="enable-background:new 0 0 380 300;" xml:space="preserve">
<style type="text/css">
	.st0{fill:none;stroke:#FF0000;stroke-width:2;stroke-miterlimit:10;}
	.st1{fill:none;stroke:#FF0000;stroke-width:2;stroke-linecap:round;stroke-miterlimit:10;}
	.st2{display:none;}
	.st3{display:inline;fill:none;stroke:#FF0000;stroke-width:2;stroke-miterlimit:10;}
	.st4{display:inline;fill:none;stroke:#FF0000;stroke-width:2;stroke-linecap:round;stroke-miterlimit:10;}
	.st5{display:inline;fill:none;stroke:#00FF00;stroke-width:2;stroke-linecap:round;stroke-miterlimit:10;}
	.st6{display:inline;}
	.st7{fill:#FFFFFF;stroke:#FFFFFF;stroke-miterlimit:10;}
	.st8{fill:none;stroke:#FFFFFF;stroke-miterlimit:10;}
	.st9{fill:none;}
	.st10{fill:#FFFFFF;}
	.st11{font-family:'AdobeSongStd-Light-GBpc-EUC-H';}
	.st12{font-size:12px;}
	.st13{display:inline;fill:#FFFFFF;stroke:#FFFFFF;stroke-miterlimit:10;}
	.st14{display:inline;fill:none;stroke:#FFFFFF;stroke-miterlimit:10;}
	.st15{display:inline;fill:none;}
	.st16{display:inline;fill:#FFFFFF;}
</style>
<g id="图层_1">
	<line class="st0" x1="40" y1="258" x2="40" y2="58"/>
	<path class="st0" d="M40,258"/>
	<line class="st0" x1="340" y1="58" x2="340" y2="258"/>
	<line class="st1" x1="40" y1="58" x2="100" y2="58"/>
	<path class="st1" d="M121.6,70.1"/>
	<path class="st1" d="M110,62.1"/>
	<path class="st1" d="M110,132"/>
	<line class="st1" x1="115.7" y1="76.6" x2="115.7" y2="117.5"/>
	<line class="st1" x1="100" y1="58" x2="115.7" y2="76.6"/>
	<line class="st1" x1="340" y1="58" x2="280" y2="58"/>
	<path class="st1" d="M258.4,70.1"/>
	<path class="st1" d="M270,62.1"/>
	<line class="st1" x1="264.3" y1="76.6" x2="264.3" y2="117.5"/>
	<line class="st1" x1="280" y1="58" x2="264.3" y2="76.6"/>
	<line class="st1" x1="115.7" y1="117.5" x2="264.3" y2="117.5"/>
	<line class="st1" x1="40" y1="258" x2="100" y2="258"/>
	<path class="st1" d="M121.6,245.9"/>
	<path class="st1" d="M110,253.9"/>
	<line class="st1" x1="115.7" y1="239.4" x2="115.7" y2="198.5"/>
	<line class="st1" x1="100" y1="258" x2="115.7" y2="239.4"/>
	<line class="st1" x1="340" y1="258" x2="280" y2="258"/>
	<path class="st1" d="M258.4,245.9"/>
	<path class="st1" d="M270,253.9"/>
	<line class="st1" x1="264.3" y1="239.4" x2="264.3" y2="198.5"/>
	<line class="st1" x1="280" y1="258" x2="264.3" y2="239.4"/>
	<line class="st1" x1="115.7" y1="198.5" x2="264.3" y2="198.5"/>
</g>
<g id="下R" class="st2">
	<line class="st3" x1="40" y1="258" x2="40" y2="58"/>
	<path class="st3" d="M40,258"/>
	<line class="st3" x1="340" y1="58" x2="340" y2="258"/>
	<line class="st4" x1="40" y1="58" x2="100" y2="58"/>
	<path class="st4" d="M121.6,70.1"/>
	<path class="st4" d="M110,62.1"/>
	<path class="st4" d="M110,132"/>
	<line class="st4" x1="100" y1="58" x2="115.7" y2="76.6"/>
	<line class="st4" x1="340" y1="58" x2="280" y2="58"/>
	<path class="st4" d="M258.4,70.1"/>
	<path class="st4" d="M270,62.1"/>
	<line class="st4" x1="280" y1="58" x2="264.3" y2="76.6"/>
	<line class="st4" x1="264.3" y1="102.5" x2="264.3" y2="76.6"/>
	<path class="st5" d="M249.3,117.5c8.3,0,15-6.7,15-15"/>
	<line class="st4" x1="130.7" y1="117.5" x2="249.3" y2="117.5"/>
	<path class="st5" d="M115.7,102.5c0,8.3,6.7,15,15,15"/>
	<line class="st4" x1="115.7" y1="76.6" x2="115.7" y2="102.5"/>
	<line class="st4" x1="40" y1="258" x2="100" y2="258"/>
	<path class="st4" d="M121.6,245.9"/>
	<path class="st4" d="M110,253.9"/>
	<path class="st4" d="M110,184"/>
	<line class="st4" x1="100" y1="258" x2="115.7" y2="239.4"/>
	<line class="st4" x1="340" y1="258" x2="280" y2="258"/>
	<path class="st4" d="M258.4,245.9"/>
	<path class="st4" d="M270,253.9"/>
	<line class="st4" x1="280" y1="258" x2="264.3" y2="239.4"/>
	<line class="st4" x1="264.3" y1="213.5" x2="264.3" y2="239.4"/>
	<path class="st5" d="M249.3,198.5c8.3,0,15,6.7,15,15"/>
	<line class="st4" x1="130.7" y1="198.5" x2="249.3" y2="198.5"/>
	<path class="st5" d="M115.7,213.5c0-8.3,6.7-15,15-15"/>
	<line class="st4" x1="115.7" y1="239.4" x2="115.7" y2="213.5"/>
	<path class="st4" d="M40,258"/>
	<path class="st4" d="M340,258"/>
	<g class="st6">
		<path class="st7" d="M119.1,112l-11.3,12.7c-0.1,0.1-0.1,0.2,0,0.3l5.9,3.4c0.1,0.1,0.2,0,0.3-0.1l5.3-16.1
			C119.5,112,119.2,111.9,119.1,112z"/>
		<line class="st8" x1="113.8" y1="121.6" x2="102.4" y2="138.7"/>
		<rect x="81.4" y="138.4" class="st9" width="35.1" height="17.7"/>
		<text transform="matrix(1 0 0 1 89.1929 148.9756)" class="st10 st11 st12">下R</text>
	</g>
</g>
<g id="尺寸" class="st2">
	<path class="st13" d="M116.6,43.6l16.6,3.4c0.1,0,0.2-0.1,0.2-0.2l0-6.8c0-0.1-0.1-0.2-0.2-0.2l-16.6,3.4
		C116.4,43.3,116.4,43.6,116.6,43.6z"/>
	<line class="st14" x1="115.7" y1="54.1" x2="115.8" y2="34.5"/>
	<line class="st14" x1="127" y1="43.6" x2="253.4" y2="43.6"/>
	<path class="st13" d="M264.3,43.8l-16.6,3.4c-0.1,0-0.2-0.1-0.2-0.2v-6.8c0-0.1,0.1-0.2,0.2-0.2l16.6,3.4
		C264.5,43.5,264.5,43.7,264.3,43.8z"/>
	<rect x="172.7" y="25.9" class="st15" width="35.1" height="17.7"/>
	<text transform="matrix(1 0 0 1 178.1812 36.4121)" class="st16 st11 st12">槽宽</text>
	<line class="st14" x1="265.1" y1="54.3" x2="264.8" y2="34.7"/>
	<g class="st6">
		<line class="st8" x1="277.3" y1="43.6" x2="328.4" y2="43.6"/>
		<g>
			<path class="st7" d="M265.7,43.8l16.6,3.4c0.1,0,0.2-0.1,0.2-0.2v-6.8c0-0.1-0.1-0.2-0.2-0.2l-16.6,3.4
				C265.5,43.5,265.5,43.7,265.7,43.8z"/>
			<path class="st7" d="M340,43.8l-16.6,3.4c-0.1,0-0.2-0.1-0.2-0.2v-6.8c0-0.1,0.1-0.2,0.2-0.2l16.6,3.4
				C340.2,43.5,340.2,43.7,340,43.8z"/>
			<rect x="285.3" y="25.9" class="st9" width="35.1" height="17.7"/>
			<text transform="matrix(1 0 0 1 290.827 36.4123)" class="st10 st11 st12">长度</text>
		</g>
	</g>
	<line class="st14" x1="340.2" y1="54.3" x2="340.2" y2="34.7"/>
	<line class="st14" x1="355.2" y1="73.8" x2="355.2" y2="242.3"/>
	<line class="st14" x1="341" y1="58" x2="367.1" y2="58.1"/>
	<line class="st14" x1="341" y1="258" x2="367.1" y2="257.5"/>
	<path class="st13" d="M355.4,257.2l3.4-16.6c0-0.1-0.1-0.2-0.2-0.2h-6.8c-0.1,0-0.2,0.1-0.2,0.2l3.4,16.6
		C355.1,257.3,355.3,257.3,355.4,257.2z"/>
	<path class="st13" d="M355.1,59.7l-3.4,16.6c0,0.1,0.1,0.2,0.2,0.2l6.8,0c0.1,0,0.2-0.1,0.2-0.2l-3.4-16.6
		C355.4,59.5,355.1,59.5,355.1,59.7z"/>
	<rect x="355.2" y="137.1" class="st15" width="17.7" height="35.1"/>
	<text transform="matrix(0 1 -1 0 362.3867 142.6108)" class="st16 st11 st12">大径</text>
	<path class="st13" d="M192.1,118.8l-3.4,16.6c0,0.1,0.1,0.2,0.2,0.2l6.8,0c0.1,0,0.2-0.1,0.2-0.2l-3.4-16.6
		C192.4,118.6,192.2,118.6,192.1,118.8z"/>
	<path class="st13" d="M192.5,198.6l3.4-16.6c0-0.1-0.1-0.2-0.2-0.2l-6.8,0c-0.1,0-0.2,0.1-0.2,0.2l3.4,16.6
		C192.2,198.8,192.4,198.8,192.5,198.6z"/>
	<line class="st14" x1="192.3" y1="127.1" x2="192.3" y2="190.3"/>
	<rect x="195.5" y="141.2" class="st15" width="17.7" height="35.1"/>
	<text transform="matrix(0 1 -1 0 202.6914 146.7138)" class="st16 st11 st12">小径</text>
	<line class="st14" x1="100" y1="58" x2="73.1" y2="31.1"/>
	<rect x="45.1" y="38.2" class="st15" width="35.1" height="12.4"/>
	<text transform="matrix(1 0 0 1 50.6086 48.7482)" class="st16 st11 st12">角度</text>
	<path class="st13" d="M79.5,36.1l14.2-9.3c0.1-0.1,0.1-0.2,0-0.3l-4.8-4.8c-0.1-0.1-0.2-0.1-0.3,0l-9.3,14.2
		C79.2,36,79.4,36.2,79.5,36.1z"/>
	<path class="st13" d="M59.8,59.1L48.5,71.8c-0.1,0.1-0.1,0.2,0,0.3l5.9,3.4c0.1,0.1,0.2,0,0.3-0.1l5.3-16.1
		C60.1,59.1,59.9,59,59.8,59.1z"/>
	<line class="st14" x1="100" y1="58" x2="100" y2="97"/>
	<path class="st13" d="M116.6,85.7l16.6,3.4c0.1,0,0.2-0.1,0.2-0.2l0-6.8c0-0.1-0.1-0.2-0.2-0.2l-16.6,3.4
		C116.4,85.4,116.4,85.7,116.6,85.7z"/>
	<path class="st13" d="M97.2,85.4l-16.6-3.4c-0.1,0-0.2,0.1-0.2,0.2l0,6.8c0,0.1,0.1,0.2,0.2,0.2l16.6-3.4
		C97.4,85.7,97.4,85.4,97.2,85.4z"/>
	<line class="st14" x1="127.5" y1="85.5" x2="149.1" y2="85.5"/>
	<line class="st14" x1="86.5" y1="85.5" x2="70" y2="85.5"/>
	<rect x="134.6" y="71.3" class="st15" width="50.1" height="12.4"/>
	<text transform="matrix(1 0 0 1 141.6609 81.8878)" class="st16 st11 st12">角度长</text>
</g>
</svg>
