<?xml version="1.0" encoding="utf-8"?>
<!-- Generator: Adobe Illustrator 24.0.1, SVG Export Plug-In . SVG Version: 6.00 Build 0)  -->
<svg version="1.1" id="图层_1" xmlns="http://www.w3.org/2000/svg" xmlns:xlink="http://www.w3.org/1999/xlink" x="0px" y="0px"
	 viewBox="0 0 380 300" style="enable-background:new 0 0 380 300;" xml:space="preserve">
<style type="text/css">
	.st0{fill:none;stroke:#FF0000;stroke-width:2;stroke-miterlimit:10;}
	.st1{fill:none;stroke:#FF0000;stroke-width:2;stroke-linecap:round;stroke-miterlimit:10;}
</style>
<path class="st0" d="M80.4,50"/>
<line class="st0" x1="40" y1="250" x2="40" y2="50"/>
<path class="st0" d="M40,250"/>
<path class="st0" d="M340,250"/>
<line class="st1" x1="82.8" y1="50" x2="101.7" y2="93"/>
<line class="st0" x1="101.7" y1="93" x2="144.9" y2="93"/>
<path class="st0" d="M273.4,50"/>
<line class="st0" x1="340" y1="250" x2="340" y2="50"/>
<line class="st0" x1="163.8" y1="50" x2="144.9" y2="93"/>
<path class="st0" d="M206.6,50"/>
<line class="st0" x1="209" y1="50" x2="227.9" y2="93"/>
<line class="st0" x1="227.9" y1="93" x2="271.1" y2="93"/>
<line class="st0" x1="290" y1="50" x2="271.1" y2="93"/>
<line class="st1" x1="40" y1="50" x2="82.8" y2="50"/>
<line class="st1" x1="340" y1="50" x2="290" y2="50"/>
<line class="st1" x1="163.8" y1="50" x2="209" y2="50"/>
<path class="st0" d="M80.4,250"/>
<line class="st1" x1="82.8" y1="250" x2="101.7" y2="207"/>
<line class="st0" x1="101.7" y1="207" x2="144.9" y2="207"/>
<path class="st0" d="M273.4,250"/>
<line class="st0" x1="163.8" y1="250" x2="144.9" y2="207"/>
<path class="st0" d="M206.6,250"/>
<line class="st0" x1="209" y1="250" x2="227.9" y2="207"/>
<line class="st0" x1="227.9" y1="207" x2="271.1" y2="207"/>
<line class="st0" x1="290" y1="250" x2="271.1" y2="207"/>
<line class="st1" x1="40" y1="250" x2="82.8" y2="250"/>
<line class="st1" x1="340" y1="250" x2="290" y2="250"/>
<line class="st1" x1="163.8" y1="250" x2="209" y2="250"/>
</svg>
