<?xml version="1.0" encoding="utf-8"?>
<!-- Generator: Adobe Illustrator 24.0.1, SVG Export Plug-In . SVG Version: 6.00 Build 0)  -->
<svg version="1.1" id="图层_1" xmlns="http://www.w3.org/2000/svg" xmlns:xlink="http://www.w3.org/1999/xlink" x="0px" y="0px"
	 viewBox="0 0 380 300" style="enable-background:new 0 0 380 300;" xml:space="preserve">
<style type="text/css">
	.st0{fill:none;stroke:#FF0000;stroke-width:2;stroke-miterlimit:10;}
	.st1{fill:none;stroke:#FF0000;stroke-width:2;stroke-linecap:round;stroke-miterlimit:10;}
</style>
<line class="st0" x1="40" y1="250" x2="40" y2="50"/>
<line class="st0" x1="340" y1="50" x2="340" y2="250"/>
<line class="st1" x1="40" y1="50" x2="82.7" y2="50"/>
<path class="st1" d="M168.1,50l-15.6,27c-12.1,20.9-42.2,20.9-54.2,0L82.7,50"/>
<line class="st1" x1="340" y1="50" x2="297.3" y2="50"/>
<path class="st1" d="M211.9,50l15.6,27c12.1,20.9,42.2,20.9,54.2,0l15.6-27"/>
<line class="st1" x1="168.1" y1="50" x2="211.9" y2="50"/>
<line class="st1" x1="40" y1="250" x2="82.7" y2="250"/>
<path class="st1" d="M168.1,250l-15.6-27c-12.1-20.9-42.2-20.9-54.2,0l-15.6,27"/>
<line class="st1" x1="340" y1="250" x2="297.3" y2="250"/>
<path class="st1" d="M211.9,250l15.6-27c12.1-20.9,42.2-20.9,54.2,0l15.6,27"/>
<line class="st1" x1="168.1" y1="250" x2="211.9" y2="250"/>
</svg>
