<?xml version="1.0" encoding="utf-8"?>
<!-- Generator: Adobe Illustrator 24.0.1, SVG Export Plug-In . SVG Version: 6.00 Build 0)  -->
<svg version="1.1" id="图层_1" xmlns="http://www.w3.org/2000/svg" xmlns:xlink="http://www.w3.org/1999/xlink" x="0px" y="0px"
	 viewBox="0 0 380 300" style="enable-background:new 0 0 380 300;" xml:space="preserve">
<style type="text/css">
	.st0{fill:none;stroke:#FF0000;stroke-width:2;stroke-miterlimit:10;}
	.st1{fill:none;stroke:#FF0000;stroke-width:2;stroke-linecap:round;stroke-miterlimit:10;}
</style>
<path class="st0" d="M106.6,50"/>
<line class="st0" x1="40" y1="250" x2="40" y2="50"/>
<path class="st0" d="M40,250"/>
<path class="st0" d="M340,250"/>
<line class="st1" x1="40" y1="50" x2="125.4" y2="50"/>
<line class="st1" x1="150" y1="110" x2="230" y2="110"/>
<path class="st0" d="M273.4,50"/>
<line class="st0" x1="340" y1="250" x2="340" y2="50"/>
<path class="st0" d="M265,50"/>
<line class="st1" x1="340" y1="50" x2="293.3" y2="50"/>
<path class="st1" d="M299.1,44.7"/>
<line class="st1" x1="230" y1="110" x2="293.5" y2="50"/>
<line class="st0" x1="150" y1="110" x2="125.4" y2="50"/>
<path class="st0" d="M106.6,104.7"/>
<line class="st1" x1="125.4" y1="250" x2="40" y2="250"/>
<line class="st1" x1="230" y1="190" x2="150" y2="190"/>
<path class="st0" d="M273.4,104.7"/>
<path class="st0" d="M265,104.7"/>
<line class="st1" x1="293.3" y1="250" x2="340" y2="250"/>
<path class="st1" d="M299.1,110"/>
<line class="st1" x1="230" y1="190" x2="293.5" y2="250"/>
<line class="st0" x1="150" y1="190" x2="125.4" y2="250"/>
</svg>
